# xmcd CD database file
#
# Track frame offsets:
#	150
#	26875
#	44300
#	72948
#	85473
#	113265
#	132373
#	149528
#	166480
#	189650
#
# Disc length: 2901 seconds
#
# Revision: 12
# Processed by: cddbd v1.5.2PL0 Copyright (c) Steve Scherf et al.
# Submitted via: CDex 1.51
#
DISCID=8e0b530a
DTITLE=Nick Cave and the Bad Seeds - Let Love In
DYEAR=1994
DGENRE=Rock
TTITLE0=Do You Love Me?
TTITLE1=Nobody's Baby Now
TTITLE2=Loverman
TTITLE3=Jangling Jack
TTITLE4=Red Right Hand
TTITLE5=I Let Love In
TTITLE6=Thirsty Dog
TTITLE7=Ain't Gonna Rain Anymore
TTITLE8=Lay Me Low
TTITLE9=Do You Love Me? (Part 2)
EXTD=YEAR: 1994
EXTT0=
EXTT1=
EXTT2=
EXTT3=
EXTT4=
EXTT5=
EXTT6=
EXTT7=
EXTT8=
EXTT9=
PLAYORDER=
